<svg xmlns="http://www.w3.org/2000/svg" width="690.84" height="173.42" viewBox="0 0 690.84 173.42"><defs><clipPath id="a"><path d="M351.07 140.9h17.88v5.44h-17.88Zm0 5.44h6.38v3.27h-6.38Zm0 3.27h17.22v5.28h-17.22Zm0 5.28h6.38v3.47h-6.38Zm0 3.47h18.34v5.46h-18.34Zm0 0"/></clipPath><clipPath id="c"><path d="M335 38h105v86H335Zm0 0"/></clipPath><clipPath id="d"><path d="M335.81 38.5v85.06h37.67V80.98l14.27 16.44 14.27-16.44v42.58h37.7V38.5H403.2l-15.45 17.73-15.37-17.73Zm0 0" clip-rule="evenodd"/></clipPath><clipPath id="f"><path d="M2 38h141v86H2Zm0 0"/></clipPath><clipPath id="g"><path d="m2.06 38.5 30.05 85.06h27.7l12.48-33.68 13.43 33.68h27.75l28.66-85.06h-36.78l-9.3 27.75L85.16 38.5H59.02L48.66 66.25 38.8 38.5Zm0 0" clip-rule="evenodd"/></clipPath><clipPath id="i"><path d="M121 38h114v86H121Zm0 0"/></clipPath><clipPath id="j"><path d="m151.29 38.5-29.54 85.06h37.66l4.91-14.38h27.64l4.91 14.38h37.64L204.96 38.5Zm19.88 50.6 6.98-21.1 6.97 21.12Zm0 0" clip-rule="evenodd"/></clipPath><clipPath id="l"><path d="M238 38h94v86h-94Zm0 0"/></clipPath><clipPath id="m"><path d="M238.28 38.5v85.06h37.6V92.07q7.98 0 11.75 7.69 3.75 7.7 4.81 23.8h39.08q-2.69-25.03-16.44-40.75 9.68-6.8 9.69-18.84 0-10.92-8.24-18.18-8.25-7.3-22.7-7.3Zm37.6 33.88V56h2.3q4.79 0 6.84 2.55a9 9 0 0 1 2.07 5.88q0 7.95-10.14 7.95Zm0 0" clip-rule="evenodd"/></clipPath><clipPath id="o"><path d="M446 0h243v172H446Zm0 0"/></clipPath><clipPath id="p"><path d="m484.2 1 31.01 35.43h-8.2v58.75q0 7.67 1.33 9.7a4.6 4.6 0 0 0 4.06 2.02q3.78 0 4.79-3.66 1-3.7 1.01-12.4v-52.3h45.6v55.62q0 30.55-15.61 44.27-15.61 13.68-35.65 13.68a54 54 0 0 1-27.57-7.56q-13.05-7.56-18.31-19.94-5.27-12.37-5.28-32.47v-55.7h-8.2l16.91-19.32h-10.17a13 13 0 0 0-12.96 12.95v128.82a13 13 0 0 0 12.96 12.96h215.74a13 13 0 0 0 12.95-12.96V30.07a13 13 0 0 0-12.95-12.95H513.2Zm132.7 64.27v22.41q2 .52 3.77.53 5.1 0 8.3-3.23 3.16-3.24 3.17-8.52 0-5.18-2.7-8.2-2.7-2.98-7.69-2.99Zm-45.56 85.16V38.53h62.41q19.77 0 30.38 10.03c7.05 6.67 10.6 19.4 10.6 29.26q-.01 14.43-10.07 24.55t-24.23 10.13q-11.8 0-23.54-8.98v46.9Zm0 0" clip-rule="evenodd"/></clipPath><clipPath id="r"><path d="M421.74 140.9h17.88v5.44h-17.88Zm0 5.44h6.38v3.27h-6.38Zm0 3.27h17.22v5.28h-17.22Zm0 5.28h6.38v3.47h-6.38Zm0 3.47h18.34v5.46h-18.34Zm0 0"/></clipPath><clipPath id="t"><path d="M393 140h27v24h-27Zm0 0"/></clipPath><clipPath id="u"><path d="m409.6 163.92 9.53-23.02h-7.17l-2.62 6.88-2.92 8.48-2.88-8.48-2.62-6.88h-7.17l9.53 23.02Zm0 0" clip-rule="evenodd"/></clipPath><clipPath id="w"><path d="M373.79 140.9h17.87v5.44H373.8Zm0 5.44h6.38v3.27h-6.38Zm0 3.27H391v5.28h-17.22Zm0 5.28h6.38v3.47h-6.38Zm0 3.47h18.33v5.46H373.8Zm0 0"/></clipPath><clipPath id="y"><path d="M330.05 140.9h6.49v17.42h-6.49Zm0 17.42h17.46v5.5h-17.46Zm0 0"/></clipPath><clipPath id="A"><path d="M305 140h22v25h-22Zm0 0"/></clipPath><clipPath id="B"><path d="M316.21 164.48c5.15-.03 10.06-2.26 10.06-7.47 0-5.27-4.75-7.1-9.3-7.6-2.26-.22-3.8-.45-3.8-2.02 0-1.21 1.54-1.7 3.1-1.7 2 0 3.8.39 5.38 1.56l3.2-4.09c-2.45-1.93-5.14-2.71-8.57-2.71-4.85 0-9.6 2.09-9.6 6.94 0 5.7 4.33 6.97 9.34 7.43 2.52.23 3.83.95 3.83 2.1 0 1.27-1.48 2.03-3.6 2.03a9.2 9.2 0 0 1-6.71-2.6l-3.58 4.1c3.18 3.34 6.13 4.06 10.25 4.03" clip-rule="evenodd"/></clipPath><clipPath id="D"><path d="M275 140h22v24h-22Zm0 0"/></clipPath><clipPath id="E"><path d="m296.48 163.43-5.96-7.73c3.86-1.7 4.84-4.1 4.84-6.9 0-4.13-3.04-7.9-8.9-7.9h-11.2v22.92h6.48v-7.43H284l5.34 7.43h7.14Zm-7.5-14.5c0 1.37-.76 2.65-2.46 2.65h-4.78v-5.5h4.72c1.7 0 2.52 1.4 2.52 2.85" clip-rule="evenodd"/></clipPath><clipPath id="G"><path d="M252.54 140.9h17.88v5.44h-17.88Zm0 5.44h6.39v3.27h-6.4Zm0 3.27h17.23v5.28h-17.23Zm0 5.28h6.39v3.47h-6.4Zm0 3.47h18.34v5.46h-18.34Zm0 0"/></clipPath><clipPath id="I"><path d="M227 140h23v25h-23Zm0 0"/></clipPath><clipPath id="J"><path d="M239.98 158.91c-4.52 0-6.1-3.37-6.13-6.35s1.7-6.58 6.13-6.58c1.54 0 3.23.42 4.88 2l3.99-3.93a12.3 12.3 0 0 0-8.87-3.67c-8.62 0-12.58 6.25-12.55 12.15.04 6.22 3.54 11.88 12.55 11.88 3.47 0 6.61-1.01 9.2-3.57l-3.8-4.25a8 8 0 0 1-5.4 2.32" clip-rule="evenodd"/></clipPath><clipPath id="L"><path d="M201 140h23v24h-23Zm0 0"/></clipPath><clipPath id="M"><path d="m208.35 156.49-.1-5.01 9.57 12.34h5.5V140.9h-6.52v7.86c.03.88.03 1.94.2 4.69l-9.7-12.55h-5.5v22.92h6.55Zm0 0" clip-rule="evenodd"/></clipPath><clipPath id="O"><path d="M172 140h28v24h-28Zm0 0"/></clipPath><clipPath id="P"><path d="M199.26 163.82 189 140.9h-6.55l-10.28 22.92h6.87l1.5-3.76h10.26l1.5 3.76Zm-10.64-9.2h-5.87l2.95-7.3Zm0 0" clip-rule="evenodd"/></clipPath><clipPath id="R"><path d="M163.21 140.9h6.42v8.74h-6.42Zm-14.73 0h6.48v8.74h-6.48Zm0 8.74h21.15v5.54h-21.15Zm0 5.54h6.48v8.64h-6.48Zm14.73 0h6.42v8.64h-6.42Zm0 0"/></clipPath><clipPath id="T"><path d="M121 140h23v24h-23Zm0 0"/></clipPath><clipPath id="U"><path d="M143.12 163.82V140.9h-6.52v7.86c.03.88.03 1.94.2 4.69l-9.7-12.55h-5.5v22.92h6.55v-7.33l-.1-5.01 9.57 12.34Zm0 0" clip-rule="evenodd"/></clipPath><clipPath id="W"><path d="M98.89 140.9h17.88v5.44H98.89Zm0 5.44h6.38v3.27H98.9Zm0 3.27h17.22v5.28H98.89Zm0 5.28h6.38v3.47H98.9Zm0 3.47h18.34v5.46H98.89Zm0 0"/></clipPath><clipPath id="Y"><path d="M64 140h23v24H64Zm0 0"/></clipPath><clipPath id="Z"><path d="M86.1 163.82V140.9h-6.52v7.86c.03.88.03 1.94.2 4.69l-9.7-12.55h-5.5v22.92h6.55v-7.33l-.1-5.01 9.56 12.34Zm0 0" clip-rule="evenodd"/></clipPath><clipPath id="ab"><path d="M52.77 140.9h6.45v22.92h-6.45Zm0 0"/></clipPath><clipPath id="ad"><path d="M30.05 140.9h17.88v5.44H30.05Zm0 5.44h6.39v3.27h-6.39Zm0 3.27h17.22v5.28H30.05Zm0 5.28h6.39v3.47h-6.39Zm0 3.47H48.4v5.46H30.05Zm0 0"/></clipPath><clipPath id="af"><path d="M2 140h26v24H2Zm0 0"/></clipPath><clipPath id="ag"><path d="m17.91 163.92 9.53-23.02h-7.17l-2.62 6.88-2.92 8.48-2.88-8.48-2.62-6.88H2.06l9.53 23.02Zm0 0" clip-rule="evenodd"/></clipPath><linearGradient id="b" x1="346.87" x2="370.74" y1="14.21" y2="27.01" gradientTransform="matrix(.99668 0 0 -.99668 2.06 171.85)" gradientUnits="userSpaceOnUse"><stop offset="0" stop-color="#ba3a40"/><stop offset=".06" stop-color="#ba3a3f"/><stop offset=".13" stop-color="#bb3a3f"/><stop offset=".19" stop-color="#bb3a3e"/><stop offset=".25" stop-color="#bc3a3e"/><stop offset=".31" stop-color="#bd3a3e"/><stop offset=".38" stop-color="#bd3a3d"/><stop offset=".4" stop-color="#be3a3d"/><stop offset=".44" stop-color="#be3a3d"/><stop offset=".5" stop-color="#bf3a3c"/><stop offset=".56" stop-color="#bf3a3c"/><stop offset=".6" stop-color="#c03a3b"/><stop offset=".63" stop-color="#c03a3b"/><stop offset=".69" stop-color="#c13b3b"/><stop offset=".75" stop-color="#c13b3b"/><stop offset=".81" stop-color="#c23b3a"/><stop offset=".88" stop-color="#c33b3a"/><stop offset=".94" stop-color="#c33b39"/><stop offset="1" stop-color="#c43b39"/></linearGradient><linearGradient id="e" x1="330.79" x2="447.41" y1="56.09" y2="118.21" gradientTransform="matrix(.99668 0 0 -.99668 2.06 171.85)" gradientUnits="userSpaceOnUse"><stop offset="0" stop-color="#74376e"/><stop offset=".03" stop-color="#74376e"/><stop offset=".05" stop-color="#75376d"/><stop offset=".06" stop-color="#75376d"/><stop offset=".08" stop-color="#76376d"/><stop offset=".09" stop-color="#76376c"/><stop offset=".11" stop-color="#77376c"/><stop offset=".13" stop-color="#77376c"/><stop offset=".14" stop-color="#78376b"/><stop offset=".16" stop-color="#79376b"/><stop offset=".17" stop-color="#79376a"/><stop offset=".19" stop-color="#7a376a"/><stop offset=".2" stop-color="#7a376a"/><stop offset=".22" stop-color="#7b3769"/><stop offset=".23" stop-color="#7b3869"/><stop offset=".25" stop-color="#7c3869"/><stop offset=".27" stop-color="#7c3868"/><stop offset=".28" stop-color="#7d3868"/><stop offset=".3" stop-color="#7e3868"/><stop offset=".3" stop-color="#7e3867"/><stop offset=".31" stop-color="#7e3867"/><stop offset=".33" stop-color="#7f3867"/><stop offset=".34" stop-color="#7f3866"/><stop offset=".36" stop-color="#803866"/><stop offset=".38" stop-color="#803866"/><stop offset=".39" stop-color="#813865"/><stop offset=".41" stop-color="#813865"/><stop offset=".42" stop-color="#823865"/><stop offset=".44" stop-color="#823864"/><stop offset=".45" stop-color="#833864"/><stop offset=".47" stop-color="#843864"/><stop offset=".48" stop-color="#843863"/><stop offset=".5" stop-color="#853863"/><stop offset=".52" stop-color="#853862"/><stop offset=".53" stop-color="#863862"/><stop offset=".55" stop-color="#863862"/><stop offset=".56" stop-color="#873861"/><stop offset=".58" stop-color="#873861"/><stop offset=".59" stop-color="#883861"/><stop offset=".61" stop-color="#893860"/><stop offset=".63" stop-color="#893860"/><stop offset=".64" stop-color="#8a3860"/><stop offset=".66" stop-color="#8a385f"/><stop offset=".67" stop-color="#8b385f"/><stop offset=".69" stop-color="#8b395e"/><stop offset=".7" stop-color="#8c395e"/><stop offset=".7" stop-color="#8c395e"/><stop offset=".72" stop-color="#8c395e"/><stop offset=".73" stop-color="#8d395d"/><stop offset=".75" stop-color="#8d395d"/><stop offset=".77" stop-color="#8e395d"/><stop offset=".78" stop-color="#8f395c"/><stop offset=".8" stop-color="#8f395c"/><stop offset=".81" stop-color="#90395b"/><stop offset=".83" stop-color="#90395b"/><stop offset=".84" stop-color="#91395b"/><stop offset=".86" stop-color="#91395a"/><stop offset=".88" stop-color="#92395a"/><stop offset=".89" stop-color="#92395a"/><stop offset=".91" stop-color="#933959"/><stop offset=".92" stop-color="#933959"/><stop offset=".94" stop-color="#943959"/><stop offset="1" stop-color="#953958"/></linearGradient><linearGradient id="h" x1="4.41" x2="136.25" y1="42.46" y2="139.6" gradientTransform="matrix(.99668 0 0 -.99668 2.06 171.85)" gradientUnits="userSpaceOnUse"><stop offset="0" stop-color="#0931b4"/><stop offset=".06" stop-color="#0931b4"/><stop offset=".09" stop-color="#0a31b4"/><stop offset=".13" stop-color="#0a31b3"/><stop offset=".16" stop-color="#0b31b3"/><stop offset=".19" stop-color="#0b31b2"/><stop offset=".22" stop-color="#0c31b2"/><stop offset=".25" stop-color="#0d31b1"/><stop offset=".28" stop-color="#0e31b1"/><stop offset=".31" stop-color="#0f31b0"/><stop offset=".31" stop-color="#0f31b0"/><stop offset=".33" stop-color="#1031b0"/><stop offset=".34" stop-color="#1031af"/><stop offset=".36" stop-color="#1131af"/><stop offset=".38" stop-color="#1131af"/><stop offset=".39" stop-color="#1231ae"/><stop offset=".41" stop-color="#1231ae"/><stop offset=".42" stop-color="#1331ad"/><stop offset=".44" stop-color="#1332ad"/><stop offset=".45" stop-color="#1432ad"/><stop offset=".47" stop-color="#1532ac"/><stop offset=".48" stop-color="#1532ac"/><stop offset=".5" stop-color="#1632ab"/><stop offset=".52" stop-color="#1732ab"/><stop offset=".53" stop-color="#1732ab"/><stop offset=".55" stop-color="#1832aa"/><stop offset=".56" stop-color="#1932aa"/><stop offset=".58" stop-color="#1932a9"/><stop offset=".59" stop-color="#1a32a9"/><stop offset=".61" stop-color="#1b32a8"/><stop offset=".63" stop-color="#1b32a8"/><stop offset=".64" stop-color="#1c32a7"/><stop offset=".66" stop-color="#1d32a7"/><stop offset=".67" stop-color="#1d32a7"/><stop offset=".69" stop-color="#1e32a6"/><stop offset=".69" stop-color="#1f32a6"/><stop offset=".7" stop-color="#1f32a5"/><stop offset=".72" stop-color="#2032a5"/><stop offset=".73" stop-color="#2032a5"/><stop offset=".75" stop-color="#2132a4"/><stop offset=".77" stop-color="#2232a4"/><stop offset=".78" stop-color="#2332a3"/><stop offset=".8" stop-color="#2432a3"/><stop offset=".81" stop-color="#2432a2"/><stop offset=".83" stop-color="#2532a1"/><stop offset=".84" stop-color="#2633a1"/><stop offset=".86" stop-color="#2733a0"/><stop offset=".88" stop-color="#2833a0"/><stop offset=".89" stop-color="#28339f"/><stop offset=".91" stop-color="#29339f"/><stop offset=".92" stop-color="#2a339e"/><stop offset=".94" stop-color="#2b339e"/><stop offset=".95" stop-color="#2c339d"/><stop offset=".97" stop-color="#2d339c"/><stop offset=".98" stop-color="#2e339c"/><stop offset="1" stop-color="#2e339b"/></linearGradient><linearGradient id="k" x1="118.78" x2="246.14" y1="52.06" y2="97.9" gradientTransform="matrix(.99668 0 0 -.99668 2.06 171.85)" gradientUnits="userSpaceOnUse"><stop offset="0" stop-color="#2b339d"/><stop offset=".06" stop-color="#2b339d"/><stop offset=".09" stop-color="#2c339d"/><stop offset=".13" stop-color="#2c339c"/><stop offset=".16" stop-color="#2d339c"/><stop offset=".19" stop-color="#2e339b"/><stop offset=".21" stop-color="#2e339b"/><stop offset=".22" stop-color="#2f339b"/><stop offset=".25" stop-color="#2f339a"/><stop offset=".28" stop-color="#30339a"/><stop offset=".3" stop-color="#313399"/><stop offset=".31" stop-color="#323399"/><stop offset=".33" stop-color="#323499"/><stop offset=".34" stop-color="#333498"/><stop offset=".36" stop-color="#333498"/><stop offset=".38" stop-color="#343497"/><stop offset=".39" stop-color="#343497"/><stop offset=".41" stop-color="#353497"/><stop offset=".42" stop-color="#353496"/><stop offset=".44" stop-color="#363496"/><stop offset=".45" stop-color="#373496"/><stop offset=".47" stop-color="#373495"/><stop offset=".48" stop-color="#383495"/><stop offset=".5" stop-color="#393494"/><stop offset=".52" stop-color="#393494"/><stop offset=".53" stop-color="#3a3493"/><stop offset=".55" stop-color="#3b3493"/><stop offset=".56" stop-color="#3b3492"/><stop offset=".58" stop-color="#3c3492"/><stop offset=".59" stop-color="#3d3492"/><stop offset=".61" stop-color="#3d3491"/><stop offset=".63" stop-color="#3e3491"/><stop offset=".64" stop-color="#3f3490"/><stop offset=".66" stop-color="#403590"/><stop offset=".67" stop-color="#40358f"/><stop offset=".69" stop-color="#41358f"/><stop offset=".7" stop-color="#42358e"/><stop offset=".72" stop-color="#43358e"/><stop offset=".73" stop-color="#44358d"/><stop offset=".75" stop-color="#44358d"/><stop offset=".77" stop-color="#45358c"/><stop offset=".78" stop-color="#46358c"/><stop offset=".79" stop-color="#47358b"/><stop offset=".81" stop-color="#47358b"/><stop offset=".88" stop-color="#47358b"/><stop offset="1" stop-color="#47358b"/></linearGradient><linearGradient id="n" x1="231.06" x2="340.42" y1="60.88" y2="113.15" gradientTransform="matrix(.99668 0 0 -.99668 2.06 171.85)" gradientUnits="userSpaceOnUse"><stop offset="0" stop-color="#533583"/><stop offset=".03" stop-color="#533583"/><stop offset=".06" stop-color="#543583"/><stop offset=".09" stop-color="#543582"/><stop offset=".13" stop-color="#553581"/><stop offset=".16" stop-color="#563581"/><stop offset=".19" stop-color="#573580"/><stop offset=".22" stop-color="#583580"/><stop offset=".25" stop-color="#59367f"/><stop offset=".28" stop-color="#5a367f"/><stop offset=".3" stop-color="#5a367e"/><stop offset=".31" stop-color="#5b367e"/><stop offset=".34" stop-color="#5b367d"/><stop offset=".38" stop-color="#5c367d"/><stop offset=".41" stop-color="#5d367c"/><stop offset=".44" stop-color="#5e367c"/><stop offset=".47" stop-color="#5f367b"/><stop offset=".5" stop-color="#5f367b"/><stop offset=".53" stop-color="#60367a"/><stop offset=".56" stop-color="#613679"/><stop offset=".59" stop-color="#623679"/><stop offset=".63" stop-color="#633678"/><stop offset=".66" stop-color="#643678"/><stop offset=".69" stop-color="#643677"/><stop offset=".7" stop-color="#653777"/><stop offset=".72" stop-color="#663776"/><stop offset=".75" stop-color="#663776"/><stop offset=".78" stop-color="#673775"/><stop offset=".81" stop-color="#683775"/><stop offset=".84" stop-color="#693774"/><stop offset=".88" stop-color="#6a3774"/><stop offset=".91" stop-color="#6a3773"/><stop offset=".94" stop-color="#6b3773"/><stop offset="1" stop-color="#6c3772"/></linearGradient><linearGradient id="q" x1="446.17" x2="698.4" y1=".35" y2="155.92" gradientTransform="matrix(.99668 0 0 -.99668 2.06 171.85)" gradientUnits="userSpaceOnUse"><stop offset="0" stop-color="#9b3954"/><stop offset=".02" stop-color="#9b3954"/><stop offset=".02" stop-color="#9b3954"/><stop offset=".03" stop-color="#9c3953"/><stop offset=".04" stop-color="#9c3953"/><stop offset=".05" stop-color="#9d3953"/><stop offset=".05" stop-color="#9e3952"/><stop offset=".06" stop-color="#9e3952"/><stop offset=".07" stop-color="#9f3951"/><stop offset=".08" stop-color="#a03951"/><stop offset=".09" stop-color="#a03950"/><stop offset=".09" stop-color="#a13950"/><stop offset=".1" stop-color="#a2394f"/><stop offset=".11" stop-color="#a2394f"/><stop offset=".12" stop-color="#a33a4f"/><stop offset=".13" stop-color="#a43a4e"/><stop offset=".13" stop-color="#a43a4e"/><stop offset=".14" stop-color="#a53a4d"/><stop offset=".15" stop-color="#a63a4d"/><stop offset=".16" stop-color="#a63a4c"/><stop offset=".16" stop-color="#a73a4c"/><stop offset=".17" stop-color="#a73a4c"/><stop offset=".18" stop-color="#a83a4b"/><stop offset=".19" stop-color="#a93a4b"/><stop offset=".2" stop-color="#a93a4a"/><stop offset=".2" stop-color="#aa3a4a"/><stop offset=".21" stop-color="#ab3a49"/><stop offset=".22" stop-color="#ab3a49"/><stop offset=".23" stop-color="#ac3a49"/><stop offset=".23" stop-color="#ad3a48"/><stop offset=".24" stop-color="#ad3a48"/><stop offset=".25" stop-color="#ae3a47"/><stop offset=".26" stop-color="#af3a47"/><stop offset=".27" stop-color="#af3a46"/><stop offset=".27" stop-color="#b03a46"/><stop offset=".28" stop-color="#b13a46"/><stop offset=".29" stop-color="#b13a45"/><stop offset=".3" stop-color="#b23a45"/><stop offset=".3" stop-color="#b33a44"/><stop offset=".3" stop-color="#b33a44"/><stop offset=".31" stop-color="#b33a44"/><stop offset=".32" stop-color="#b43a43"/><stop offset=".33" stop-color="#b53a43"/><stop offset=".34" stop-color="#b53a42"/><stop offset=".34" stop-color="#b63a42"/><stop offset=".35" stop-color="#b63a42"/><stop offset=".36" stop-color="#b73a41"/><stop offset=".37" stop-color="#b83b41"/><stop offset=".38" stop-color="#b83b40"/><stop offset=".38" stop-color="#b93b40"/><stop offset=".39" stop-color="#ba3b3f"/><stop offset=".4" stop-color="#ba3b3f"/><stop offset=".41" stop-color="#bb3b3f"/><stop offset=".41" stop-color="#bc3b3e"/><stop offset=".42" stop-color="#bc3b3e"/><stop offset=".43" stop-color="#bd3b3d"/><stop offset=".44" stop-color="#be3b3d"/><stop offset=".45" stop-color="#be3b3c"/><stop offset=".45" stop-color="#bf3b3c"/><stop offset=".46" stop-color="#c03b3c"/><stop offset=".47" stop-color="#c03b3b"/><stop offset=".48" stop-color="#c13b3b"/><stop offset=".48" stop-color="#c23b3a"/><stop offset=".49" stop-color="#c23b3a"/><stop offset=".5" stop-color="#c33b39"/><stop offset=".51" stop-color="#c33b39"/><stop offset=".52" stop-color="#c43b38"/><stop offset=".52" stop-color="#c53b38"/><stop offset=".53" stop-color="#c53b38"/><stop offset=".54" stop-color="#c63b37"/><stop offset=".55" stop-color="#c73b37"/><stop offset=".55" stop-color="#c73b36"/><stop offset=".56" stop-color="#c83b36"/><stop offset=".57" stop-color="#c93b35"/><stop offset=".58" stop-color="#c93b35"/><stop offset=".59" stop-color="#ca3b35"/><stop offset=".59" stop-color="#cb3b34"/><stop offset=".6" stop-color="#cb3b34"/><stop offset=".61" stop-color="#cc3c33"/><stop offset=".62" stop-color="#cd3c33"/><stop offset=".63" stop-color="#cd3c32"/><stop offset=".63" stop-color="#ce3c32"/><stop offset=".64" stop-color="#cf3c32"/><stop offset=".65" stop-color="#cf3c31"/><stop offset=".66" stop-color="#d03c31"/><stop offset=".66" stop-color="#d13c30"/><stop offset=".67" stop-color="#d13c30"/><stop offset=".68" stop-color="#d23c2f"/><stop offset=".69" stop-color="#d23c2f"/><stop offset=".7" stop-color="#d33c2f"/><stop offset=".7" stop-color="#d43c2e"/><stop offset=".7" stop-color="#d43c2e"/><stop offset=".71" stop-color="#d43c2e"/><stop offset=".72" stop-color="#d53c2d"/><stop offset=".73" stop-color="#d63c2d"/><stop offset=".73" stop-color="#d63c2c"/><stop offset=".74" stop-color="#d73c2c"/><stop offset=".75" stop-color="#d83c2b"/><stop offset=".76" stop-color="#d83c2b"/><stop offset=".77" stop-color="#d93c2b"/><stop offset=".77" stop-color="#da3c2a"/><stop offset=".78" stop-color="#da3c2a"/><stop offset=".79" stop-color="#db3c29"/><stop offset=".8" stop-color="#dc3c29"/><stop offset=".8" stop-color="#dc3c28"/><stop offset=".81" stop-color="#dd3c28"/><stop offset=".82" stop-color="#de3c28"/><stop offset=".83" stop-color="#de3c27"/><stop offset=".84" stop-color="#df3c27"/><stop offset=".84" stop-color="#df3c26"/><stop offset=".85" stop-color="#e03d26"/><stop offset=".86" stop-color="#e13d25"/><stop offset=".87" stop-color="#e13d25"/><stop offset=".88" stop-color="#e23d25"/><stop offset=".88" stop-color="#e33d24"/><stop offset=".89" stop-color="#e33d24"/><stop offset=".9" stop-color="#e43d23"/><stop offset=".91" stop-color="#e53d23"/><stop offset=".91" stop-color="#e53d22"/><stop offset=".92" stop-color="#e63d22"/><stop offset=".93" stop-color="#e73d21"/><stop offset=".94" stop-color="#e73d21"/><stop offset=".95" stop-color="#e83d21"/><stop offset=".95" stop-color="#e93d20"/><stop offset=".97" stop-color="#e93d20"/><stop offset="1" stop-color="#e93d20"/></linearGradient><linearGradient id="s" x1="417.77" x2="441.64" y1="14.21" y2="27.01" gradientTransform="matrix(.99668 0 0 -.99668 2.06 171.85)" gradientUnits="userSpaceOnUse"><stop offset="0" stop-color="#e23d25"/><stop offset=".06" stop-color="#e33d24"/><stop offset=".13" stop-color="#e33d24"/><stop offset=".19" stop-color="#e43d24"/><stop offset=".25" stop-color="#e43d24"/><stop offset=".31" stop-color="#e53d23"/><stop offset=".38" stop-color="#e53d23"/><stop offset=".4" stop-color="#e63d23"/><stop offset=".44" stop-color="#e63d22"/><stop offset=".5" stop-color="#e63d22"/><stop offset=".56" stop-color="#e73d22"/><stop offset=".6" stop-color="#e73d22"/><stop offset=".63" stop-color="#e73d21"/><stop offset=".69" stop-color="#e83d21"/><stop offset=".75" stop-color="#e83d21"/><stop offset=".81" stop-color="#e93d21"/><stop offset=".88" stop-color="#e93d20"/><stop offset=".94" stop-color="#ea3d20"/><stop offset="1" stop-color="#ea3d20"/></linearGradient><linearGradient id="v" x1="391.23" x2="418.72" y1="10.34" y2="30.69" gradientTransform="matrix(.99668 0 0 -.99668 2.06 171.85)" gradientUnits="userSpaceOnUse"><stop offset="0" stop-color="#d23c2f"/><stop offset=".06" stop-color="#d23c2f"/><stop offset=".13" stop-color="#d33c2f"/><stop offset=".19" stop-color="#d43c2e"/><stop offset=".25" stop-color="#d53c2d"/><stop offset=".31" stop-color="#d63c2d"/><stop offset=".38" stop-color="#d63c2c"/><stop offset=".4" stop-color="#d73c2c"/><stop offset=".44" stop-color="#d83c2c"/><stop offset=".5" stop-color="#d83c2b"/><stop offset=".56" stop-color="#d93c2b"/><stop offset=".6" stop-color="#da3c2a"/><stop offset=".63" stop-color="#da3c2a"/><stop offset=".69" stop-color="#da3c2a"/><stop offset=".75" stop-color="#db3c29"/><stop offset=".81" stop-color="#dc3c29"/><stop offset=".88" stop-color="#dd3c28"/><stop offset=".94" stop-color="#de3c27"/><stop offset="1" stop-color="#de3c27"/></linearGradient><linearGradient id="x" x1="369.66" x2="393.53" y1="14.21" y2="27.01" gradientTransform="matrix(.99668 0 0 -.99668 2.06 171.85)" gradientUnits="userSpaceOnUse"><stop offset="0" stop-color="#c63b38"/><stop offset=".06" stop-color="#c63b37"/><stop offset=".13" stop-color="#c73b37"/><stop offset=".19" stop-color="#c73b37"/><stop offset=".25" stop-color="#c83b36"/><stop offset=".31" stop-color="#c93b36"/><stop offset=".38" stop-color="#c93b35"/><stop offset=".4" stop-color="#ca3b35"/><stop offset=".44" stop-color="#ca3b35"/><stop offset=".5" stop-color="#cb3b34"/><stop offset=".56" stop-color="#cb3b34"/><stop offset=".6" stop-color="#cc3b33"/><stop offset=".63" stop-color="#cc3c33"/><stop offset=".69" stop-color="#cd3c33"/><stop offset=".75" stop-color="#cd3c32"/><stop offset=".81" stop-color="#ce3c32"/><stop offset=".88" stop-color="#cf3c32"/><stop offset=".94" stop-color="#cf3c31"/><stop offset="1" stop-color="#d03c31"/></linearGradient><linearGradient id="z" x1="325.7" x2="348.9" y1="14.68" y2="26.54" gradientTransform="matrix(.99668 0 0 -.99668 2.06 171.85)" gradientUnits="userSpaceOnUse"><stop offset="0" stop-color="#af3a46"/><stop offset=".06" stop-color="#af3a46"/><stop offset=".13" stop-color="#b03a46"/><stop offset=".19" stop-color="#b13a45"/><stop offset=".25" stop-color="#b13a45"/><stop offset=".31" stop-color="#b23a44"/><stop offset=".38" stop-color="#b33a44"/><stop offset=".4" stop-color="#b43a43"/><stop offset=".44" stop-color="#b43a43"/><stop offset=".5" stop-color="#b43a43"/><stop offset=".56" stop-color="#b53a42"/><stop offset=".6" stop-color="#b63a42"/><stop offset=".63" stop-color="#b63a41"/><stop offset=".69" stop-color="#b73b41"/><stop offset=".75" stop-color="#b83b41"/><stop offset=".81" stop-color="#b83b40"/><stop offset=".88" stop-color="#b93b40"/><stop offset=".94" stop-color="#ba3b3f"/><stop offset="1" stop-color="#bb3b3f"/></linearGradient><linearGradient id="C" x1="301.58" x2="327.35" y1="13.25" y2="27.85" gradientTransform="matrix(.99668 0 0 -.99668 2.06 171.85)" gradientUnits="userSpaceOnUse"><stop offset="0" stop-color="#a4394e"/><stop offset=".06" stop-color="#a4394d"/><stop offset=".13" stop-color="#a5394d"/><stop offset=".19" stop-color="#a6394c"/><stop offset=".25" stop-color="#a6394c"/><stop offset=".31" stop-color="#a7394b"/><stop offset=".38" stop-color="#a8394b"/><stop offset=".4" stop-color="#a9394a"/><stop offset=".44" stop-color="#a9394a"/><stop offset=".5" stop-color="#a9394a"/><stop offset=".56" stop-color="#aa3a49"/><stop offset=".6" stop-color="#ab3a49"/><stop offset=".63" stop-color="#ab3a49"/><stop offset=".69" stop-color="#ac3a48"/><stop offset=".75" stop-color="#ad3a48"/><stop offset=".81" stop-color="#ad3a47"/><stop offset=".88" stop-color="#ae3a47"/><stop offset=".94" stop-color="#af3a46"/><stop offset="1" stop-color="#b03a46"/></linearGradient><linearGradient id="F" x1="271.27" x2="296.94" y1="12.62" y2="28.56" gradientTransform="matrix(.99668 0 0 -.99668 2.06 171.85)" gradientUnits="userSpaceOnUse"><stop offset="0" stop-color="#91385a"/><stop offset=".03" stop-color="#91385a"/><stop offset=".06" stop-color="#92385a"/><stop offset=".09" stop-color="#923859"/><stop offset=".13" stop-color="#933859"/><stop offset=".16" stop-color="#933859"/><stop offset=".19" stop-color="#943858"/><stop offset=".22" stop-color="#943858"/><stop offset=".25" stop-color="#953858"/><stop offset=".28" stop-color="#963857"/><stop offset=".31" stop-color="#963857"/><stop offset=".34" stop-color="#973857"/><stop offset=".38" stop-color="#973856"/><stop offset=".4" stop-color="#983956"/><stop offset=".41" stop-color="#983956"/><stop offset=".44" stop-color="#983955"/><stop offset=".47" stop-color="#993955"/><stop offset=".5" stop-color="#993955"/><stop offset=".53" stop-color="#9a3954"/><stop offset=".56" stop-color="#9a3954"/><stop offset=".59" stop-color="#9b3954"/><stop offset=".6" stop-color="#9b3953"/><stop offset=".63" stop-color="#9b3953"/><stop offset=".66" stop-color="#9c3953"/><stop offset=".69" stop-color="#9c3953"/><stop offset=".72" stop-color="#9d3952"/><stop offset=".75" stop-color="#9d3952"/><stop offset=".78" stop-color="#9e3952"/><stop offset=".81" stop-color="#9e3951"/><stop offset=".84" stop-color="#9f3951"/><stop offset=".88" stop-color="#9f3951"/><stop offset=".91" stop-color="#a03950"/><stop offset=".94" stop-color="#a03950"/><stop offset=".97" stop-color="#a1394f"/><stop offset="1" stop-color="#a1394f"/></linearGradient><linearGradient id="H" x1="248.01" x2="271.88" y1="14.21" y2="27.01" gradientTransform="matrix(.99668 0 0 -.99668 2.06 171.85)" gradientUnits="userSpaceOnUse"><stop offset="0" stop-color="#863861"/><stop offset=".06" stop-color="#863861"/><stop offset=".13" stop-color="#873861"/><stop offset=".19" stop-color="#883860"/><stop offset=".25" stop-color="#893860"/><stop offset=".31" stop-color="#89385f"/><stop offset=".38" stop-color="#8a385f"/><stop offset=".4" stop-color="#8b385e"/><stop offset=".44" stop-color="#8b385e"/><stop offset=".5" stop-color="#8c385e"/><stop offset=".56" stop-color="#8c385d"/><stop offset=".6" stop-color="#8d385d"/><stop offset=".63" stop-color="#8d385d"/><stop offset=".69" stop-color="#8e385c"/><stop offset=".75" stop-color="#8f385c"/><stop offset=".81" stop-color="#8f385b"/><stop offset=".88" stop-color="#90385b"/><stop offset=".94" stop-color="#91385a"/><stop offset="1" stop-color="#92385a"/></linearGradient><linearGradient id="K" x1="223.03" x2="249.69" y1="12.51" y2="28.69" gradientTransform="matrix(.99668 0 0 -.99668 2.06 171.85)" gradientUnits="userSpaceOnUse"><stop offset="0" stop-color="#77376b"/><stop offset=".06" stop-color="#77376b"/><stop offset=".13" stop-color="#78376b"/><stop offset=".19" stop-color="#79376a"/><stop offset=".25" stop-color="#7a3769"/><stop offset=".31" stop-color="#7b3769"/><stop offset=".38" stop-color="#7c3768"/><stop offset=".4" stop-color="#7d3767"/><stop offset=".44" stop-color="#7d3867"/><stop offset=".5" stop-color="#7e3867"/><stop offset=".56" stop-color="#7f3866"/><stop offset=".6" stop-color="#803866"/><stop offset=".63" stop-color="#803865"/><stop offset=".69" stop-color="#813865"/><stop offset=".75" stop-color="#823864"/><stop offset=".81" stop-color="#833864"/><stop offset=".88" stop-color="#833863"/><stop offset=".94" stop-color="#843863"/><stop offset="1" stop-color="#853862"/></linearGradient><linearGradient id="N" x1="197.63" x2="223.46" y1="12.45" y2="28.72" gradientTransform="matrix(.99668 0 0 -.99668 2.06 171.85)" gradientUnits="userSpaceOnUse"><stop offset="0" stop-color="#6b3673"/><stop offset=".06" stop-color="#6b3673"/><stop offset=".13" stop-color="#6c3673"/><stop offset=".19" stop-color="#6d3672"/><stop offset=".25" stop-color="#6e3672"/><stop offset=".31" stop-color="#6f3671"/><stop offset=".38" stop-color="#6f3670"/><stop offset=".4" stop-color="#703670"/><stop offset=".44" stop-color="#713770"/><stop offset=".5" stop-color="#71376f"/><stop offset=".56" stop-color="#72376f"/><stop offset=".6" stop-color="#73376e"/><stop offset=".63" stop-color="#73376e"/><stop offset=".69" stop-color="#74376e"/><stop offset=".75" stop-color="#74376d"/><stop offset=".81" stop-color="#75376d"/><stop offset=".88" stop-color="#76376c"/><stop offset=".94" stop-color="#77376c"/><stop offset="1" stop-color="#78376b"/></linearGradient><linearGradient id="Q" x1="169.54" x2="197.42" y1="9.5" y2="31.6" gradientTransform="matrix(.99668 0 0 -.99668 2.06 171.85)" gradientUnits="userSpaceOnUse"><stop offset="0" stop-color="#59357f"/><stop offset=".03" stop-color="#59357f"/><stop offset=".06" stop-color="#5a357f"/><stop offset=".09" stop-color="#5a357e"/><stop offset=".13" stop-color="#5b357e"/><stop offset=".16" stop-color="#5c357d"/><stop offset=".19" stop-color="#5c357d"/><stop offset=".22" stop-color="#5d367d"/><stop offset=".25" stop-color="#5d367c"/><stop offset=".28" stop-color="#5e367c"/><stop offset=".31" stop-color="#5e367c"/><stop offset=".34" stop-color="#5f367b"/><stop offset=".38" stop-color="#5f367b"/><stop offset=".4" stop-color="#60367a"/><stop offset=".41" stop-color="#60367a"/><stop offset=".44" stop-color="#61367a"/><stop offset=".47" stop-color="#61367a"/><stop offset=".5" stop-color="#623679"/><stop offset=".53" stop-color="#623679"/><stop offset=".56" stop-color="#633678"/><stop offset=".59" stop-color="#633678"/><stop offset=".6" stop-color="#643678"/><stop offset=".63" stop-color="#643678"/><stop offset=".66" stop-color="#643677"/><stop offset=".69" stop-color="#653677"/><stop offset=".72" stop-color="#663677"/><stop offset=".75" stop-color="#663676"/><stop offset=".78" stop-color="#673776"/><stop offset=".81" stop-color="#673775"/><stop offset=".84" stop-color="#683775"/><stop offset=".88" stop-color="#683775"/><stop offset=".91" stop-color="#693774"/><stop offset=".94" stop-color="#693774"/><stop offset=".97" stop-color="#6a3774"/><stop offset="1" stop-color="#6a3773"/></linearGradient><linearGradient id="S" x1="144.06" x2="169.69" y1="12.66" y2="28.52" gradientTransform="matrix(.99668 0 0 -.99668 2.06 171.85)" gradientUnits="userSpaceOnUse"><stop offset="0" stop-color="#4d3586"/><stop offset=".03" stop-color="#4d3586"/><stop offset=".06" stop-color="#4e3586"/><stop offset=".09" stop-color="#4e3585"/><stop offset=".13" stop-color="#4f3585"/><stop offset=".16" stop-color="#503585"/><stop offset=".19" stop-color="#503584"/><stop offset=".22" stop-color="#513584"/><stop offset=".25" stop-color="#513583"/><stop offset=".28" stop-color="#523583"/><stop offset=".31" stop-color="#523583"/><stop offset=".34" stop-color="#533582"/><stop offset=".38" stop-color="#533582"/><stop offset=".4" stop-color="#543582"/><stop offset=".41" stop-color="#543582"/><stop offset=".44" stop-color="#543581"/><stop offset=".47" stop-color="#553581"/><stop offset=".5" stop-color="#563681"/><stop offset=".53" stop-color="#563680"/><stop offset=".56" stop-color="#573680"/><stop offset=".59" stop-color="#573680"/><stop offset=".6" stop-color="#58367f"/><stop offset=".63" stop-color="#58367f"/><stop offset=".66" stop-color="#58367f"/><stop offset=".69" stop-color="#59367f"/><stop offset=".72" stop-color="#59367e"/><stop offset=".75" stop-color="#5a367e"/><stop offset=".78" stop-color="#5a367d"/><stop offset=".81" stop-color="#5b367d"/><stop offset=".84" stop-color="#5c367d"/><stop offset=".88" stop-color="#5c367c"/><stop offset=".91" stop-color="#5d367c"/><stop offset=".94" stop-color="#5d367c"/><stop offset=".97" stop-color="#5e367b"/><stop offset="1" stop-color="#5e367b"/></linearGradient><linearGradient id="V" x1="117.17" x2="143" y1="12.46" y2="28.71" gradientTransform="matrix(.99668 0 0 -.99668 2.06 171.85)" gradientUnits="userSpaceOnUse"><stop offset="0" stop-color="#3f3490"/><stop offset=".06" stop-color="#3f3490"/><stop offset=".13" stop-color="#403490"/><stop offset=".19" stop-color="#41348f"/><stop offset=".25" stop-color="#42348e"/><stop offset=".31" stop-color="#43348e"/><stop offset=".38" stop-color="#44348d"/><stop offset=".4" stop-color="#45348c"/><stop offset=".44" stop-color="#45348c"/><stop offset=".5" stop-color="#46348c"/><stop offset=".56" stop-color="#47358b"/><stop offset=".6" stop-color="#48358b"/><stop offset=".63" stop-color="#48358a"/><stop offset=".69" stop-color="#49358a"/><stop offset=".75" stop-color="#4a3589"/><stop offset=".81" stop-color="#4b3589"/><stop offset=".88" stop-color="#4c3588"/><stop offset=".94" stop-color="#4c3588"/><stop offset="1" stop-color="#4d3587"/></linearGradient><linearGradient id="X" x1="93.85" x2="117.71" y1="14.21" y2="27.01" gradientTransform="matrix(.99668 0 0 -.99668 2.06 171.85)" gradientUnits="userSpaceOnUse"><stop offset="0" stop-color="#353497"/><stop offset=".06" stop-color="#353496"/><stop offset=".13" stop-color="#363496"/><stop offset=".19" stop-color="#373495"/><stop offset=".25" stop-color="#373495"/><stop offset=".31" stop-color="#383495"/><stop offset=".38" stop-color="#393494"/><stop offset=".4" stop-color="#393494"/><stop offset=".44" stop-color="#3a3493"/><stop offset=".5" stop-color="#3a3493"/><stop offset=".56" stop-color="#3b3493"/><stop offset=".6" stop-color="#3c3492"/><stop offset=".63" stop-color="#3c3492"/><stop offset=".69" stop-color="#3c3492"/><stop offset=".75" stop-color="#3d3492"/><stop offset=".81" stop-color="#3e3491"/><stop offset=".88" stop-color="#3e3491"/><stop offset=".94" stop-color="#3f3490"/><stop offset="1" stop-color="#403490"/></linearGradient><linearGradient id="aa" x1="59.95" x2="85.78" y1="12.46" y2="28.72" gradientTransform="matrix(.99668 0 0 -.99668 2.06 171.85)" gradientUnits="userSpaceOnUse"><stop offset="0" stop-color="#2033a4"/><stop offset=".06" stop-color="#2033a4"/><stop offset=".13" stop-color="#2133a4"/><stop offset=".19" stop-color="#2233a3"/><stop offset=".25" stop-color="#2333a3"/><stop offset=".31" stop-color="#2333a2"/><stop offset=".38" stop-color="#2433a2"/><stop offset=".4" stop-color="#2533a1"/><stop offset=".44" stop-color="#2533a1"/><stop offset=".5" stop-color="#2633a1"/><stop offset=".56" stop-color="#2633a0"/><stop offset=".6" stop-color="#2733a0"/><stop offset=".63" stop-color="#2733a0"/><stop offset=".69" stop-color="#28339f"/><stop offset=".75" stop-color="#29339f"/><stop offset=".81" stop-color="#29339e"/><stop offset=".88" stop-color="#2a339e"/><stop offset=".94" stop-color="#2b339d"/><stop offset="1" stop-color="#2c339d"/></linearGradient><linearGradient id="ac" x1="48.68" x2="59.12" y1="19.69" y2="21.66" gradientTransform="matrix(.99668 0 0 -.99668 2.06 171.85)" gradientUnits="userSpaceOnUse"><stop offset="0" stop-color="#1932a9"/><stop offset=".13" stop-color="#1a32a8"/><stop offset=".25" stop-color="#1b32a8"/><stop offset=".38" stop-color="#1c32a7"/><stop offset=".4" stop-color="#1d32a6"/><stop offset=".5" stop-color="#1d32a6"/><stop offset=".6" stop-color="#1e33a6"/><stop offset=".63" stop-color="#1e33a5"/><stop offset=".75" stop-color="#1f33a5"/><stop offset=".88" stop-color="#2033a4"/><stop offset="1" stop-color="#2133a4"/></linearGradient><linearGradient id="ae" x1="24.78" x2="48.65" y1="14.21" y2="27.01" gradientTransform="matrix(.99668 0 0 -.99668 2.06 171.85)" gradientUnits="userSpaceOnUse"><stop offset="0" stop-color="#0f32b0"/><stop offset=".06" stop-color="#0f32b0"/><stop offset=".13" stop-color="#1032b0"/><stop offset=".19" stop-color="#1132af"/><stop offset=".25" stop-color="#1232ae"/><stop offset=".31" stop-color="#1232ae"/><stop offset=".38" stop-color="#1332ad"/><stop offset=".4" stop-color="#1432ad"/><stop offset=".44" stop-color="#1432ad"/><stop offset=".5" stop-color="#1532ac"/><stop offset=".56" stop-color="#1532ac"/><stop offset=".6" stop-color="#1632ab"/><stop offset=".63" stop-color="#1632ab"/><stop offset=".69" stop-color="#1732ab"/><stop offset=".75" stop-color="#1832aa"/><stop offset=".81" stop-color="#1832aa"/><stop offset=".88" stop-color="#1932a9"/><stop offset=".94" stop-color="#1a32a9"/><stop offset="1" stop-color="#1b32a8"/></linearGradient><linearGradient id="ah" x1="-1.77" x2="25.73" y1="10.35" y2="30.69" gradientTransform="matrix(.99668 0 0 -.99668 2.06 171.85)" gradientUnits="userSpaceOnUse"><stop offset="0" stop-color="#0531b7"/><stop offset=".06" stop-color="#0531b6"/><stop offset=".13" stop-color="#0631b6"/><stop offset=".19" stop-color="#0731b6"/><stop offset=".25" stop-color="#0731b5"/><stop offset=".31" stop-color="#0831b5"/><stop offset=".38" stop-color="#0931b4"/><stop offset=".4" stop-color="#0931b4"/><stop offset=".44" stop-color="#0a31b3"/><stop offset=".5" stop-color="#0a31b3"/><stop offset=".56" stop-color="#0b31b3"/><stop offset=".6" stop-color="#0c32b2"/><stop offset=".63" stop-color="#0c32b2"/><stop offset=".69" stop-color="#0c32b2"/><stop offset=".75" stop-color="#0d32b1"/><stop offset=".81" stop-color="#0e32b1"/><stop offset=".88" stop-color="#0e32b1"/><stop offset=".94" stop-color="#0f32b0"/><stop offset="1" stop-color="#1032b0"/></linearGradient></defs><g clip-path="url(#a)"><path fill="url(#b)" d="M351.07 163.82V140.9h18.34v22.92Zm0 0"/></g><g clip-path="url(#c)"><g clip-path="url(#d)"><path fill="url(#e)" d="M335.81 123.56V38.5h103.9v85.06Zm0 0"/></g></g><g clip-path="url(#f)"><g clip-path="url(#g)"><path fill="url(#h)" d="M2.06 123.56V38.5h140.07v85.06Zm0 0"/></g></g><g clip-path="url(#i)"><g clip-path="url(#j)"><path fill="url(#k)" d="M121.75 123.56V38.5H234.5v85.06Zm0 0"/></g></g><g clip-path="url(#l)"><g clip-path="url(#m)"><path fill="url(#n)" d="M238.28 123.56V38.5h93.24v85.06Zm0 0"/></g></g><g clip-path="url(#o)"><g clip-path="url(#p)"><path fill="url(#q)" d="M446.96 171.85V1h241.65v170.85Zm0 0"/></g></g><g clip-path="url(#r)"><path fill="url(#s)" d="M421.74 163.82V140.9h18.34v22.92Zm0 0"/></g><g clip-path="url(#t)"><g clip-path="url(#u)"><path fill="url(#v)" d="M393.75 163.92V140.9h25.38v23.02Zm0 0"/></g></g><g clip-path="url(#w)"><path fill="url(#x)" d="M373.79 163.82V140.9h18.33v22.92Zm0 0"/></g><g clip-path="url(#y)"><path fill="url(#z)" d="M330.05 163.82V140.9h17.46v22.92Zm0 0"/></g><g clip-path="url(#A)"><g clip-path="url(#B)"><path fill="url(#C)" d="M305.96 164.51v-24.06h20.3v24.06Zm0 0"/></g></g><g clip-path="url(#D)"><g clip-path="url(#E)"><path fill="url(#F)" d="M275.26 163.82V140.9h21.22v22.92Zm0 0"/></g></g><g clip-path="url(#G)"><path fill="url(#H)" d="M252.54 163.82V140.9h18.34v22.92Zm0 0"/></g><g clip-path="url(#I)"><g clip-path="url(#J)"><path fill="url(#K)" d="M227.4 164.41v-24.03h21.78v24.03Zm0 0"/></g></g><g clip-path="url(#L)"><g clip-path="url(#M)"><path fill="url(#N)" d="M201.8 163.82V140.9h21.52v22.92Zm0 0"/></g></g><g clip-path="url(#O)"><g clip-path="url(#P)"><path fill="url(#Q)" d="M172.18 163.82V140.9h27.08v22.92Zm0 0"/></g></g><g clip-path="url(#R)"><path fill="url(#S)" d="M148.48 163.82V140.9h21.15v22.92Zm0 0"/></g><g clip-path="url(#T)"><g clip-path="url(#U)"><path fill="url(#V)" d="M121.6 163.82V140.9h21.52v22.92Zm0 0"/></g></g><g clip-path="url(#W)"><path fill="url(#X)" d="M98.89 163.82V140.9h18.34v22.92Zm0 0"/></g><g clip-path="url(#Y)"><g clip-path="url(#Z)"><path fill="url(#aa)" d="M64.58 163.82V140.9h21.51v22.92Zm0 0"/></g></g><g clip-path="url(#ab)"><path fill="url(#ac)" d="M52.77 163.82V140.9h6.45v22.92Zm0 0"/></g><g clip-path="url(#ad)"><path fill="url(#ae)" d="M30.05 163.82V140.9H48.4v22.92Zm0 0"/></g><g clip-path="url(#af)"><g clip-path="url(#ag)"><path fill="url(#ah)" d="M2.06 163.92V140.9h25.38v23.02Zm0 0"/></g></g></svg>